# xmcd
#
# Track frame offsets:
#	150
#	22453
#	40746
#
# Disc length: 759 seconds
#
# Revision: 0
# Processed by: cddbd v1.5.2PL0 Copyright (c) Steve Scherf et al.
# Submitted via: audiograbber 1.83.01
#
DISCID=2202f503
DTITLE=7 Wishes - Try
DYEAR=1996
DGENRE=
TTITLE0=Try
TTITLE1=Seven Wishes
TTITLE2=Hero
EXTD=
EXTT0=
EXTT1=
EXTT2=
PLAYORDER=
